<svg xmlns="http://www.w3.org/2000/svg" version="1.0" width="500.000000pt" height="500.000000pt" viewBox="0 0 500.000000 500.000000" preserveAspectRatio="xMidYMid meet">

<g transform="translate(0.000000,500.000000) scale(0.100000,-0.100000)" fill="#000000" stroke="none">
<path d="M2520 4009 c-93 -39 -129 -154 -75 -244 40 -70 149 -97 230 -58 39 19 41 22 21 48 -12 17 -14 17 -37 2 -54 -39 -157 -6 -179 56 l-10 29 135 -8 135 -7 0 30 c0 82 -66 154 -148 159 -26 2 -58 -1 -72 -7z m137 -74 c13 -14 23 -35 23 -46 0 -19 -4 -20 -97 -13 -54 4 -100 8 -102 10 -9 8 25 56 49 70 37 21 100 11 127 -21z"/>
<path d="M2145 3971 c-22 -10 -46 -29 -52 -42 l-11 -24 -7 28 c-5 19 -12 26 -22 23 -8 -3 -19 -6 -25 -6 -14 0 -3 -66 32 -208 16 -62 32 -133 35 -156 9 -58 18 -70 47 -63 l25 7 -14 71 c-7 40 -11 74 -9 76 2 3 14 -1 27 -7 30 -16 105 -7 138 17 72 54 90 137 49 220 -39 77 -127 104 -213 64z m143 -64 c17 -18 26 -40 29 -74 5 -42 1 -53 -22 -81 -51 -61 -139 -52 -176 19 -32 63 -20 111 37 150 38 26 98 20 132 -14z"/>
<path d="M2817 3848 c-53 -176 -54 -184 -26 -191 13 -4 27 -3 30 1 4 4 17 45 29 91 29 108 53 136 114 135 36 -1 47 3 51 17 4 11 3 23 0 29 -8 13 -56 13 -90 0 -24 -9 -26 -8 -23 13 2 17 -2 23 -22 25 -24 3 -27 -3 -63 -120z"/>
<path d="M1787 3836 c-80 -29 -122 -91 -115 -171 14 -171 234 -209 315 -55 68 127 -64 276 -200 226z m104 -56 c24 -13 59 -81 59 -116 0 -16 -13 -39 -34 -60 -44 -44 -99 -47 -144 -9 -60 51 -65 113 -12 166 22 23 38 29 70 29 23 0 50 -5 61 -10z"/>
<path d="M1425 3740 c-17 -19 -17 -21 8 -52 14 -18 44 -53 67 -78 23 -25 76 -84 117 -132 42 -49 77 -88 80 -88 11 0 43 22 43 29 0 7 -153 185 -268 310 -28 31 -29 31 -47 11z"/>
<path d="M3465 3529 c-82 -73 -150 -138 -150 -147 0 -8 7 -19 16 -25 13 -8 29 0 79 44 l62 54 36 -40 c21 -22 53 -59 73 -82 35 -42 36 -43 54 -23 17 19 16 22 -49 95 -36 42 -66 80 -66 84 0 5 24 29 53 54 l53 45 77 -89 c69 -80 80 -88 98 -78 11 5 19 14 17 19 -7 19 -183 220 -193 220 -5 0 -77 -59 -160 -131z"/>
<path d="M3101 3586 c-8 -10 -11 -26 -7 -42 5 -20 12 -25 33 -22 14 2 31 11 37 21 23 36 -36 76 -63 43z"/>
<path d="M1354 3471 c-72 -44 -100 -143 -62 -217 27 -49 91 -88 148 -88 88 0 170 82 170 169 0 31 -3 35 -25 35 -22 0 -25 -4 -25 -35 0 -49 -63 -115 -111 -115 -63 0 -64 11 -2 91 31 41 67 87 80 102 27 34 24 42 -24 62 -49 21 -112 19 -149 -4z m120 -40 c3 -5 -20 -42 -51 -83 -31 -40 -58 -75 -60 -77 -1 -2 -9 1 -17 8 -35 29 -21 112 25 145 25 17 94 22 103 7z"/>
<path d="M3690 3227 c-61 -30 -112 -63 -123 -79 -41 -55 -16 -150 51 -195 30 -20 31 -22 12 -28 -17 -5 -18 -10 -9 -28 7 -12 13 -23 14 -24 2 -3 123 48 227 96 66 29 68 31 56 56 -13 29 -18 29 -122 -21 -78 -38 -111 -42 -144 -18 -25 18 -52 64 -52 92 0 30 49 67 142 108 l86 38 -14 28 c-8 15 -16 28 -17 27 -1 0 -49 -24 -107 -52z"/>
<path d="M1168 3225 c-12 -27 -17 -20 162 -204 l25 -26 -141 -3 c-140 -3 -141 -3 -153 -28 -6 -14 -11 -27 -11 -29 0 -2 78 -2 173 2 142 4 174 8 185 22 7 9 11 23 10 32 -2 10 -56 72 -121 138 -116 120 -118 121 -129 96z"/>
<path d="M3940 2864 c-58 -14 -147 -34 -197 -45 -92 -20 -93 -21 -93 -51 0 -28 2 -30 27 -23 14 3 101 22 192 42 91 20 180 39 196 42 17 4 29 10 28 14 -2 4 -3 16 -3 27 0 25 -14 25 -150 -6z"/>
<path d="M1122 2850 c-61 -14 -112 -86 -112 -158 0 -40 31 -97 67 -124 31 -24 46 -28 97 -28 74 1 99 14 137 70 24 36 29 53 29 104 0 75 -24 115 -54 93 -16 -12 -17 -17 -6 -37 7 -13 10 -43 8 -72 -6 -56 -34 -92 -82 -104 -27 -6 -28 -5 -23 17 13 55 30 218 24 233 -7 17 -31 19 -85 6z m34 -127 c-12 -136 -18 -144 -67 -92 -33 35 -37 74 -14 119 17 32 40 49 69 50 17 0 18 -6 12 -77z"/>
<path d="M3990 2683 c-69 -7 -168 -16 -220 -21 -94 -7 -95 -7 -98 -34 -3 -27 -2 -28 45 -27 71 0 391 34 398 41 4 3 5 17 3 30 l-3 23 -125 -12z"/>
<path d="M1077 2476 c-27 -7 -61 -22 -75 -33 -36 -26 -82 -118 -82 -164 0 -35 36 -228 44 -236 2 -2 73 9 157 26 85 16 175 33 202 36 26 4 49 11 52 15 7 11 -35 221 -50 250 -25 47 -76 90 -128 105 -59 18 -58 18 -120 1z m168 -97 c29 -29 38 -48 54 -122 14 -64 16 -89 8 -92 -33 -9 -300 -55 -303 -52 -2 2 -11 38 -19 79 -20 94 -10 140 37 185 43 40 52 43 126 40 56 -3 66 -6 97 -38z"/>
<path d="M3692 2363 c-70 -89 -75 -235 -9 -277 70 -47 127 -21 183 81 63 116 91 134 132 90 31 -33 28 -83 -8 -153 -24 -44 -28 -59 -18 -66 24 -15 42 -3 67 40 35 64 40 159 12 205 -21 34 -63 57 -102 57 -29 0 -87 -58 -115 -114 -14 -28 -34 -62 -45 -75 -23 -28 -67 -31 -86 -5 -30 42 0 167 50 206 22 17 22 17 2 32 -28 21 -30 21 -63 -21z"/>
<path d="M3582 2017 c-32 -18 -51 -50 -54 -88 -3 -28 1 -35 18 -37 17 -2 23 4 27 27 11 56 38 58 135 10 48 -23 89 -43 91 -45 2 -2 -4 -22 -14 -45 -16 -35 -17 -42 -4 -50 23 -14 28 -11 46 26 17 37 31 42 64 25 16 -9 21 -6 31 16 9 19 10 28 2 31 -6 2 -19 10 -29 17 -14 10 -15 16 -6 34 10 18 8 23 -10 33 -21 11 -38 0 -39 -23 0 -15 -21 -8 -113 37 -100 49 -110 51 -145 32z"/>
<path d="M1384 1900 c-72 -17 -134 -92 -134 -161 0 -17 10 -52 23 -77 17 -35 33 -50 68 -67 l47 -21 -36 -25 c-20 -13 -50 -36 -69 -50 -33 -27 -33 -27 -14 -50 l18 -23 69 53 c38 29 119 90 181 135 110 81 112 83 96 105 -11 16 -18 20 -26 12 -19 -19 -27 -12 -27 19 0 17 -7 44 -14 59 -20 37 -82 91 -106 91 -10 0 -24 2 -32 4 -7 2 -27 1 -44 -4z m80 -64 c44 -19 66 -52 66 -101 0 -94 -126 -149 -188 -82 -28 29 -41 67 -35 99 6 30 58 84 88 91 33 8 34 8 69 -7z"/>
<path d="M3485 1850 c-38 -16 -76 -66 -82 -109 -5 -35 -8 -39 -20 -29 -12 10 -18 9 -29 -7 -8 -10 -14 -21 -14 -25 0 -10 144 -127 179 -144 61 -32 122 -6 172 72 33 52 38 96 12 106 -21 8 -27 1 -42 -51 -19 -69 -81 -102 -126 -69 -18 13 -18 15 10 51 52 64 65 89 65 122 0 45 -9 62 -41 78 -31 17 -54 18 -84 5z m68 -71 c15 -23 2 -60 -36 -103 -30 -36 -35 -38 -54 -25 -38 23 -36 82 3 124 27 29 70 31 87 4z"/>
<path d="M1650 1605 c0 -21 5 -25 29 -25 34 0 91 -37 108 -70 15 -30 17 -86 3 -95 -5 -3 -37 16 -71 42 -33 26 -79 61 -100 76 l-40 28 -19 -23 c-43 -52 -34 -151 18 -200 40 -38 65 -48 119 -48 96 0 173 91 158 188 -11 74 -101 151 -177 152 -23 0 -28 -4 -28 -25z m31 -172 c43 -32 79 -61 79 -66 0 -11 -46 -27 -79 -27 -34 0 -79 33 -92 68 -9 24 -4 82 7 82 3 0 41 -26 85 -57z"/>
<path d="M3241 1590 c-64 -15 -131 -86 -131 -140 0 -24 3 -27 25 -22 16 3 25 11 25 23 0 10 13 33 28 50 38 42 104 51 145 19 39 -31 60 -76 53 -115 -10 -52 -77 -102 -122 -91 -19 5 -26 2 -33 -16 -25 -67 121 -42 175 30 38 50 45 126 15 179 -38 67 -108 99 -180 83z"/>
<path d="M3013 1460 l-22 -9 19 -42 c18 -43 18 -43 -3 -81 -12 -21 -25 -38 -29 -38 -3 0 -41 20 -83 45 -72 43 -79 45 -110 34 l-34 -13 57 -34 c31 -19 78 -48 104 -64 l46 -29 -38 -82 c-21 -45 -37 -83 -35 -85 2 -2 16 3 32 12 22 11 42 41 79 115 27 56 51 101 54 101 3 0 27 -59 55 -131 48 -125 51 -130 75 -124 14 4 26 8 28 10 2 2 -12 43 -31 92 -19 48 -47 120 -62 158 -49 130 -69 175 -74 174 -3 0 -16 -4 -28 -9z"/>
<path d="M1964 1343 c-31 -49 -87 -132 -123 -186 -54 -80 -63 -100 -51 -107 30 -19 47 -6 107 88 112 174 125 192 133 192 4 0 10 -71 14 -157 9 -190 11 -200 42 -206 22 -4 35 11 127 146 l102 150 6 -64 c4 -35 10 -116 14 -181 7 -114 7 -116 32 -123 14 -3 28 -4 30 -1 6 6 -22 435 -29 441 -2 3 -18 7 -34 10 -28 5 -32 0 -124 -139 -52 -80 -98 -140 -101 -134 -4 6 -10 84 -14 174 l-7 163 -31 10 c-16 6 -31 11 -32 11 -2 0 -29 -39 -61 -87z"/>
<path d="M2552 1341 c-8 -5 -12 -21 -10 -37 2 -23 9 -30 29 -32 36 -4 55 21 41 53 -12 25 -36 32 -60 16z"/>
</g>
</svg>